<?xml version="1.0" encoding="utf-8"?><svg xmlns="http://www.w3.org/2000/svg" xmlns:xlink="http://www.w3.org/1999/xlink"><symbol viewBox="0 0 26 26" id="facebook" xmlns="http://www.w3.org/2000/svg"><g clip-path="url(#aclip0_47_81)"><path d="M10.604 20.583v-7.116H8.668v-2.563h1.936V8.716c0-1.72 1.143-3.3 3.778-3.3 1.067 0 1.856.1 1.856.1l-.062 2.393S15.37 7.9 14.493 7.9c-.95 0-1.102.426-1.102 1.132v1.871h2.86l-.124 2.563H13.39v7.116h-2.787z"/></g><defs><clipPath id="aclip0_47_81"><path transform="translate(8.668 5.417)" d="M0 0h7.583v15.167H0z"/></clipPath></defs></symbol><symbol viewBox="0 0 27 26" id="instagramm" xmlns="http://www.w3.org/2000/svg"><g clip-path="url(#bclip0_47_69)"><path d="M13.834 8.62c-2.461 0-4.446 1.954-4.446 4.376 0 2.422 1.985 4.376 4.446 4.376 2.46 0 4.445-1.954 4.445-4.376 0-2.422-1.985-4.376-4.445-4.376zm0 7.221c-1.59 0-2.89-1.276-2.89-2.845 0-1.57 1.295-2.845 2.89-2.845 1.594 0 2.89 1.276 2.89 2.845 0 1.57-1.3 2.845-2.89 2.845zm5.664-7.4c0 .567-.464 1.02-1.037 1.02a1.026 1.026 0 01-1.037-1.02c0-.564.464-1.02 1.037-1.02s1.037.456 1.037 1.02zm2.944 1.036c-.066-1.367-.383-2.579-1.4-3.576-1.014-.998-2.244-1.31-3.633-1.38-1.432-.08-5.723-.08-7.154 0-1.385.066-2.616.378-3.633 1.376-1.018.998-1.331 2.209-1.4 3.576-.082 1.41-.082 5.633 0 7.042.065 1.367.382 2.579 1.4 3.576 1.017.998 2.244 1.31 3.633 1.38 1.431.08 5.722.08 7.154 0 1.389-.066 2.619-.378 3.633-1.38 1.013-.997 1.33-2.209 1.4-3.576.081-1.409.081-5.629 0-7.038zm-1.85 8.55a2.904 2.904 0 01-1.647 1.623c-1.142.445-3.85.342-5.111.342-1.262 0-3.974.1-5.111-.342a2.903 2.903 0 01-1.649-1.623c-.452-1.123-.348-3.79-.348-5.031 0-1.242-.1-3.911.348-5.031a2.904 2.904 0 011.649-1.623C9.864 5.897 12.573 6 13.833 6c1.262 0 3.974-.1 5.112.342a2.904 2.904 0 011.648 1.623c.453 1.123.348 3.79.348 5.031 0 1.242.105 3.911-.348 5.031z"/></g><defs><clipPath id="bclip0_47_69"><path transform="translate(5.164 3.25)" d="M0 0h17.333v19.5H0z"/></clipPath></defs></symbol><symbol viewBox="0 0 27 26" id="linkedIn" xmlns="http://www.w3.org/2000/svg"><g clip-path="url(#cclip0_47_73)"><path d="M8.85 20.582V9.62H5.132v10.963H8.85zM6.991 8.121c1.296 0 2.102-.842 2.102-1.894-.024-1.076-.806-1.894-2.078-1.894-1.27 0-2.102.818-2.102 1.894 0 1.052.806 1.894 2.054 1.894h.024zm3.914 12.461h3.716V14.46c0-.328.025-.655.123-.89.268-.654.88-1.332 1.906-1.332 1.345 0 1.883 1.005 1.883 2.479v5.865h3.716v-6.286c0-3.368-1.833-4.935-4.278-4.935-2.005 0-2.885 1.1-3.374 1.848h.025v-1.59h-3.717c.05 1.028 0 10.963 0 10.963z"/></g><defs><clipPath id="cclip0_47_73"><path transform="translate(4.914 4.333)" d="M0 0h17.333v16.25H0z"/></clipPath></defs></symbol><symbol viewBox="0 0 13 13" id="phone" xmlns="http://www.w3.org/2000/svg"><path d="M1.03 2.376L2.592.816a1.185 1.185 0 011.682 0l1.68 1.68a1.185 1.185 0 010 1.682L4.727 5.407c.287.634.687 1.21 1.18 1.702A5.797 5.797 0 007.61 8.294l1.229-1.229a1.186 1.186 0 011.682 0l1.682 1.68a1.186 1.186 0 010 1.683l-1.56 1.559a1.927 1.927 0 01-1.67.537c-1.976-.326-3.937-1.377-5.52-2.958-1.58-1.58-2.63-3.539-2.96-5.522a1.93 1.93 0 01.538-1.668z"/></symbol><symbol viewBox="0 0 27 26" id="twitter" xmlns="http://www.w3.org/2000/svg"><g clip-path="url(#eclip0_47_77)"><path d="M23 7.264c-.73.308-1.505.51-2.298.6a3.86 3.86 0 001.76-2.109 8.257 8.257 0 01-2.541.925A4.09 4.09 0 0017 5.477c-2.21 0-4 1.706-4 3.81 0 .3.035.59.103.87-3.324-.16-6.272-1.677-8.246-3.983a3.658 3.658 0 00-.541 1.916c0 1.323.706 2.49 1.78 3.173a4.137 4.137 0 01-1.813-.477v.048c0 1.847 1.38 3.387 3.21 3.737a4.198 4.198 0 01-1.807.065c.509 1.515 1.986 2.617 3.737 2.647a8.284 8.284 0 01-4.969 1.632c-.323 0-.641-.018-.954-.053a11.735 11.735 0 006.133 1.712c7.358 0 11.382-5.808 11.382-10.844 0-.165-.003-.33-.011-.493A7.93 7.93 0 0023 7.264z"/></g><defs><clipPath id="eclip0_47_77"><path transform="translate(3.5 5.417)" d="M0 0h19.5v15.167H0z"/></clipPath></defs></symbol></svg>