<svg width="61" height="37" viewBox="0 0 61 37" fill="none" xmlns="http://www.w3.org/2000/svg">
<path d="M1.07812 12.3125C1.07812 12.0391 1.10156 11.8008 1.14844 11.5977C1.19531 11.3945 1.28516 11.2266 1.41797 11.0938C1.55078 10.9531 1.73438 10.8477 1.96875 10.7773C2.20312 10.707 2.50781 10.6719 2.88281 10.6719H8.10938C8.5625 10.6719 8.90625 10.7383 9.14062 10.8711C9.38281 11.0039 9.55078 11.1719 9.64453 11.375C9.74609 11.5703 9.80078 11.7812 9.80859 12.0078C9.81641 12.2266 9.82031 12.4297 9.82031 12.6172V25.8945C10.3594 25.8164 10.8594 25.7461 11.3203 25.6836C11.5156 25.6602 11.7109 25.6367 11.9062 25.6133C12.1094 25.582 12.293 25.5547 12.457 25.5312C12.6289 25.5078 12.7812 25.4922 12.9141 25.4844C13.0469 25.4688 13.1445 25.4609 13.207 25.4609C13.3398 25.4609 13.4453 25.4883 13.5234 25.543C13.6094 25.5898 13.6523 25.6914 13.6523 25.8477V26.9258C13.6523 27.0664 13.5898 27.1992 13.4648 27.3242C13.3477 27.4414 13.1562 27.5 12.8906 27.5H2.85938C2.49219 27.5 2.19141 27.4648 1.95703 27.3945C1.73047 27.3242 1.55078 27.2227 1.41797 27.0898C1.28516 26.957 1.19531 26.7891 1.14844 26.5859C1.10156 26.3828 1.07812 26.1445 1.07812 25.8711V12.3125ZM21.75 27.9102C21.1641 27.9102 20.5781 27.8633 19.9922 27.7695C19.4062 27.6758 18.8438 27.5273 18.3047 27.3242C17.7734 27.1211 17.2773 26.8555 16.8164 26.5273C16.3555 26.1992 15.9531 25.7969 15.6094 25.3203C15.2734 24.8438 15.0078 24.293 14.8125 23.668C14.6172 23.0352 14.5195 22.3125 14.5195 21.5C14.5195 20.7031 14.6172 19.9922 14.8125 19.3672C15.0078 18.7344 15.2734 18.1797 15.6094 17.7031C15.9531 17.2266 16.3555 16.8242 16.8164 16.4961C17.2773 16.1602 17.7734 15.8906 18.3047 15.6875C18.8438 15.4766 19.4062 15.3242 19.9922 15.2305C20.5781 15.1367 21.1641 15.0898 21.75 15.0898C22.2891 15.0898 22.8398 15.125 23.4023 15.1953C23.9727 15.2578 24.5234 15.3789 25.0547 15.5586C25.5938 15.7305 26.0977 15.9688 26.5664 16.2734C27.043 16.5703 27.457 16.9531 27.8086 17.4219C28.168 17.8906 28.4492 18.4531 28.6523 19.1094C28.8633 19.7578 28.9688 20.5234 28.9688 21.4062C28.9688 22.3125 28.8672 23.1055 28.6641 23.7852C28.4609 24.457 28.1797 25.0352 27.8203 25.5195C27.4688 25.9961 27.0586 26.3906 26.5898 26.7031C26.1211 27.0156 25.6172 27.2617 25.0781 27.4414C24.5469 27.6133 23.9961 27.7344 23.4258 27.8047C22.8555 27.875 22.2969 27.9102 21.75 27.9102ZM25.3477 25.0977C25.5898 25.0977 25.8281 25.0469 26.0625 24.9453C26.3047 24.8359 26.5156 24.6445 26.6953 24.3711C26.8828 24.0977 27.0312 23.7227 27.1406 23.2461C27.2578 22.7617 27.3164 22.1484 27.3164 21.4062C27.3164 20.7031 27.2578 20.125 27.1406 19.6719C27.0312 19.2188 26.8828 18.8633 26.6953 18.6055C26.5078 18.3398 26.2969 18.1562 26.0625 18.0547C25.8281 17.9531 25.5898 17.9023 25.3477 17.9023C25.1602 17.9023 24.9492 17.9414 24.7148 18.0195C24.4883 18.0977 24.2734 18.2656 24.0703 18.5234C23.875 18.7734 23.7109 19.1367 23.5781 19.6133C23.4453 20.082 23.3789 20.7109 23.3789 21.5C23.3789 22.2891 23.4336 22.9219 23.543 23.3984C23.6523 23.875 23.7969 24.2383 23.9766 24.4883C24.1562 24.7383 24.3633 24.9023 24.5977 24.9805C24.8398 25.0586 25.0898 25.0977 25.3477 25.0977ZM37.4531 26.3281C36.8594 26.3281 36.2695 26.2891 35.6836 26.2109C35.0977 26.125 34.5352 25.9922 33.9961 25.8125C33.9883 25.8516 33.9844 25.8906 33.9844 25.9297C33.9844 25.9609 33.9844 25.9961 33.9844 26.0352C33.9844 26.2695 34.0234 26.4883 34.1016 26.6914C34.1797 26.8867 34.3008 27.0586 34.4648 27.207C34.6367 27.3555 34.8594 27.4727 35.1328 27.5586C35.4062 27.6445 35.7383 27.6875 36.1289 27.6875C36.5586 27.6875 36.957 27.6602 37.3242 27.6055C37.6914 27.5586 38.0508 27.5078 38.4023 27.4531C38.7539 27.3906 39.1055 27.3359 39.457 27.2891C39.8164 27.2344 40.1953 27.207 40.5938 27.207C40.9766 27.207 41.3516 27.2773 41.7188 27.418C42.0859 27.5508 42.4102 27.7461 42.6914 28.0039C42.9805 28.2695 43.2109 28.5938 43.3828 28.9766C43.5547 29.3594 43.6406 29.7969 43.6406 30.2891C43.6406 30.7266 43.5977 31.1094 43.5117 31.4375C43.4336 31.7656 43.3516 32.0781 43.2656 32.375C43.25 32.4141 43.2188 32.4609 43.1719 32.5156C43.1328 32.5703 43.0547 32.5977 42.9375 32.5977H42.0703C41.9609 32.5977 41.8906 32.5703 41.8594 32.5156C41.8281 32.4688 41.8047 32.4297 41.7891 32.3984C41.6406 32.0312 41.0664 31.8477 40.0664 31.8477C39.6367 31.8477 39.2109 31.8711 38.7891 31.918C38.3672 31.9727 37.9375 32.0273 37.5 32.082C37.0625 32.1445 36.6055 32.1992 36.1289 32.2461C35.6602 32.3008 35.1641 32.3281 34.6406 32.3281C33.9141 32.3281 33.2969 32.207 32.7891 31.9648C32.2891 31.7227 31.8828 31.4141 31.5703 31.0391C31.2578 30.6719 31.0312 30.2656 30.8906 29.8203C30.75 29.375 30.6797 28.9531 30.6797 28.5547C30.6797 28.125 30.7266 27.7344 30.8203 27.3828C30.9219 27.0234 31.0508 26.6992 31.207 26.4102C31.3633 26.1211 31.543 25.8633 31.7461 25.6367C31.9492 25.4023 32.1523 25.1914 32.3555 25.0039C31.7148 24.5664 31.1992 23.9961 30.8086 23.293C30.418 22.5898 30.2227 21.7266 30.2227 20.7031C30.2227 20.0078 30.3203 19.3867 30.5156 18.8398C30.7109 18.2852 30.9766 17.8008 31.3125 17.3867C31.6562 16.9648 32.0586 16.6094 32.5195 16.3203C32.9805 16.0312 33.4766 15.7969 34.0078 15.6172C34.5469 15.4297 35.1094 15.2969 35.6953 15.2188C36.2812 15.1328 36.8672 15.0898 37.4531 15.0898C37.9766 15.0898 38.5117 15.1172 39.0586 15.1719C39.6055 15.2266 40.1367 15.3281 40.6523 15.4766C41.1758 15.6172 41.668 15.8086 42.1289 16.0508C42.5977 16.293 43.0117 16.6016 43.3711 16.9766L44.6484 15.6758C44.7344 15.5898 44.8164 15.5273 44.8945 15.4883C44.9805 15.4492 45.0586 15.4297 45.1289 15.4297C45.2539 15.4297 45.3672 15.4805 45.4688 15.582L46.043 16.1914C46.1367 16.3008 46.1836 16.4141 46.1836 16.5312C46.1836 16.7031 46.0859 16.8594 45.8906 17L44.1914 18.1953C44.3477 18.5312 44.4648 18.8984 44.543 19.2969C44.6289 19.6953 44.6719 20.1328 44.6719 20.6094C44.6719 21.4062 44.5703 22.1016 44.3672 22.6953C44.1641 23.2891 43.8828 23.7969 43.5234 24.2188C43.1719 24.6406 42.7617 24.9883 42.293 25.2617C41.8242 25.5352 41.3203 25.75 40.7812 25.9062C40.25 26.0625 39.6992 26.1719 39.1289 26.2344C38.5586 26.2969 38 26.3281 37.4531 26.3281ZM41.3672 19.4141C41.3281 19.375 41.3086 19.3164 41.3086 19.2383C41.3086 19.1445 41.3438 19.0625 41.4141 18.9922L42.1641 18.2188C42.0078 18.1016 41.8359 18.0195 41.6484 17.9727C41.4688 17.9258 41.2852 17.9023 41.0977 17.9023C40.9102 17.9023 40.6992 17.9336 40.4648 17.9961C40.2383 18.0508 40.0195 18.1758 39.8086 18.3711C39.6055 18.5664 39.4336 18.8516 39.293 19.2266C39.1523 19.5938 39.082 20.0859 39.082 20.7031C39.082 21.3203 39.1367 21.8164 39.2461 22.1914C39.3633 22.5586 39.5156 22.8398 39.7031 23.0352C39.8906 23.2305 40.1055 23.3594 40.3477 23.4219C40.5898 23.4844 40.8398 23.5156 41.0977 23.5156C41.3398 23.5156 41.5781 23.4766 41.8125 23.3984C42.0469 23.3125 42.25 23.1641 42.4219 22.9531C42.6016 22.7344 42.7461 22.4414 42.8555 22.0742C42.9648 21.6992 43.0195 21.2188 43.0195 20.6328C43.0195 20.0469 42.9531 19.5625 42.8203 19.1797L42.0352 19.7305C41.9727 19.7695 41.9102 19.7891 41.8477 19.7891C41.7461 19.7891 41.6641 19.75 41.6016 19.6719L41.3672 19.4141ZM53.5312 27.9102C52.9453 27.9102 52.3594 27.8633 51.7734 27.7695C51.1875 27.6758 50.625 27.5273 50.0859 27.3242C49.5547 27.1211 49.0586 26.8555 48.5977 26.5273C48.1367 26.1992 47.7344 25.7969 47.3906 25.3203C47.0547 24.8438 46.7891 24.293 46.5938 23.668C46.3984 23.0352 46.3008 22.3125 46.3008 21.5C46.3008 20.7031 46.3984 19.9922 46.5938 19.3672C46.7891 18.7344 47.0547 18.1797 47.3906 17.7031C47.7344 17.2266 48.1367 16.8242 48.5977 16.4961C49.0586 16.1602 49.5547 15.8906 50.0859 15.6875C50.625 15.4766 51.1875 15.3242 51.7734 15.2305C52.3594 15.1367 52.9453 15.0898 53.5312 15.0898C54.0703 15.0898 54.6211 15.125 55.1836 15.1953C55.7539 15.2578 56.3047 15.3789 56.8359 15.5586C57.375 15.7305 57.8789 15.9688 58.3477 16.2734C58.8242 16.5703 59.2383 16.9531 59.5898 17.4219C59.9492 17.8906 60.2305 18.4531 60.4336 19.1094C60.6445 19.7578 60.75 20.5234 60.75 21.4062C60.75 22.3125 60.6484 23.1055 60.4453 23.7852C60.2422 24.457 59.9609 25.0352 59.6016 25.5195C59.25 25.9961 58.8398 26.3906 58.3711 26.7031C57.9023 27.0156 57.3984 27.2617 56.8594 27.4414C56.3281 27.6133 55.7773 27.7344 55.207 27.8047C54.6367 27.875 54.0781 27.9102 53.5312 27.9102ZM57.1289 25.0977C57.3711 25.0977 57.6094 25.0469 57.8438 24.9453C58.0859 24.8359 58.2969 24.6445 58.4766 24.3711C58.6641 24.0977 58.8125 23.7227 58.9219 23.2461C59.0391 22.7617 59.0977 22.1484 59.0977 21.4062C59.0977 20.7031 59.0391 20.125 58.9219 19.6719C58.8125 19.2188 58.6641 18.8633 58.4766 18.6055C58.2891 18.3398 58.0781 18.1562 57.8438 18.0547C57.6094 17.9531 57.3711 17.9023 57.1289 17.9023C56.9414 17.9023 56.7305 17.9414 56.4961 18.0195C56.2695 18.0977 56.0547 18.2656 55.8516 18.5234C55.6562 18.7734 55.4922 19.1367 55.3594 19.6133C55.2266 20.082 55.1602 20.7109 55.1602 21.5C55.1602 22.2891 55.2148 22.9219 55.3242 23.3984C55.4336 23.875 55.5781 24.2383 55.7578 24.4883C55.9375 24.7383 56.1445 24.9023 56.3789 24.9805C56.6211 25.0586 56.8711 25.0977 57.1289 25.0977Z" fill="#2F4590"/>
</svg>
