<svg width="27" height="26" viewBox="0 0 27 26" fill="none" xmlns="http://www.w3.org/2000/svg">
<g clip-path="url(#clip0_47_69)">
<path d="M13.8336 8.61994C11.3729 8.61994 9.38806 10.5738 9.38806 12.996C9.38806 15.4183 11.3729 17.3721 13.8336 17.3721C16.2943 17.3721 18.2791 15.4183 18.2791 12.996C18.2791 10.5738 16.2943 8.61994 13.8336 8.61994ZM13.8336 15.841C12.2434 15.841 10.9434 14.5652 10.9434 12.996C10.9434 11.4269 12.2395 10.151 13.8336 10.151C15.4276 10.151 16.7238 11.4269 16.7238 12.996C16.7238 14.5652 15.4238 15.841 13.8336 15.841ZM19.4979 8.44094C19.4979 9.00842 19.0336 9.46164 18.461 9.46164C17.8845 9.46164 17.4241 9.00461 17.4241 8.44094C17.4241 7.87727 17.8883 7.42024 18.461 7.42024C19.0336 7.42024 19.4979 7.87727 19.4979 8.44094ZM22.4422 9.47688C22.3764 8.10959 22.0592 6.89846 21.0416 5.90061C20.0279 4.90276 18.7976 4.59045 17.4086 4.5219C15.977 4.44192 11.6863 4.44192 10.2547 4.5219C8.8696 4.58665 7.63925 4.89895 6.62169 5.8968C5.60413 6.89465 5.29074 8.10578 5.22109 9.47307C5.13984 10.8822 5.13984 15.106 5.22109 16.5152C5.28687 17.8824 5.60413 19.0936 6.62169 20.0914C7.63925 21.0893 8.86573 21.4016 10.2547 21.4701C11.6863 21.5501 15.977 21.5501 17.4086 21.4701C18.7976 21.4054 20.0279 21.0931 21.0416 20.0914C22.0553 19.0936 22.3726 17.8824 22.4422 16.5152C22.5235 15.106 22.5235 10.8861 22.4422 9.47688ZM20.5928 18.0272C20.291 18.7736 19.7068 19.3487 18.9446 19.6496C17.8032 20.0952 15.0949 19.9924 13.8336 19.9924C12.5723 19.9924 9.86008 20.0914 8.72258 19.6496C7.96425 19.3526 7.38002 18.7775 7.07437 18.0272C6.62169 16.9036 6.72615 14.2376 6.72615 12.996C6.72615 11.7544 6.62556 9.08459 7.07437 7.96487C7.37615 7.21838 7.96038 6.64328 8.72258 6.34241C9.86395 5.8968 12.5723 5.99963 13.8336 5.99963C15.0949 5.99963 17.8071 5.90061 18.9446 6.34241C19.7029 6.63948 20.2872 7.21457 20.5928 7.96487C21.0455 9.0884 20.941 11.7544 20.941 12.996C20.941 14.2376 21.0455 16.9074 20.5928 18.0272Z" fill="white"/>
</g>
<defs>
<clipPath id="clip0_47_69">
<rect width="17.3333" height="19.5" fill="white" transform="translate(5.16406 3.25)"/>
</clipPath>
</defs>
</svg>
