<svg width="27" height="26" viewBox="0 0 27 26" fill="none" xmlns="http://www.w3.org/2000/svg">
<g clip-path="url(#clip0_47_73)">
<path d="M8.84947 20.5825V9.61868H5.13331V20.5825H8.84947ZM6.99187 8.12085C8.28777 8.12085 9.09439 7.27895 9.09439 6.22686C9.07025 5.15105 8.28781 4.33252 7.01647 4.33252C5.74532 4.33252 4.91406 5.15106 4.91406 6.22686C4.91406 7.279 5.72049 8.12085 6.96762 8.12085H6.99176H6.99187ZM10.9064 20.5825H14.6225V14.4598C14.6225 14.1321 14.6467 13.8048 14.7448 13.5705C15.0134 12.9158 15.6249 12.2377 16.6515 12.2377C17.9962 12.2377 18.5342 13.2432 18.5342 14.717V20.5825H22.2501V14.2959C22.2501 10.9282 20.4167 9.36128 17.9717 9.36128C15.967 9.36128 15.0868 10.4601 14.5978 11.2086H14.6226V9.61845H10.9064C10.9552 10.6472 10.9064 20.5823 10.9064 20.5823L10.9064 20.5825Z" fill="white"/>
</g>
<defs>
<clipPath id="clip0_47_73">
<rect width="17.3333" height="16.25" fill="white" transform="translate(4.91406 4.33252)"/>
</clipPath>
</defs>
</svg>
