<svg width="13" height="13" viewBox="0 0 13 13" fill="none" xmlns="http://www.w3.org/2000/svg">
<path d="M1.03018 2.37565L2.59197 0.815329C2.70214 0.704674 2.83309 0.616877 2.97729 0.556981C3.1215 0.497085 3.27611 0.466271 3.43226 0.466309C3.75049 0.466309 4.04965 0.590959 4.27402 0.815329L5.95459 2.49591C6.06525 2.60608 6.15304 2.73702 6.21294 2.88123C6.27284 3.02543 6.30365 3.18005 6.30361 3.33619C6.30361 3.65442 6.17896 3.95358 5.95459 4.17795L4.72569 5.40685C5.01335 6.04089 5.41328 6.6177 5.9062 7.10942C6.39788 7.60354 6.97463 8.00493 7.60877 8.29433L8.83767 7.06543C8.94785 6.95478 9.07879 6.86698 9.223 6.80708C9.3672 6.74719 9.52182 6.71637 9.67796 6.71641C9.99619 6.71641 10.2953 6.84106 10.5197 7.06543L12.2018 8.74454C12.3126 8.85491 12.4004 8.9861 12.4603 9.13057C12.5202 9.27503 12.551 9.42991 12.5508 9.58629C12.5508 9.90452 12.4261 10.2037 12.2018 10.428L10.6429 11.9869C10.2851 12.3462 9.79088 12.55 9.28348 12.55C9.17643 12.55 9.07378 12.5412 8.97259 12.5236C6.99579 12.1981 5.03511 11.1466 3.45279 9.56576C1.87194 7.98637 0.821943 6.02717 0.491987 4.0445C0.392267 3.43885 0.593174 2.8156 1.03018 2.37565Z" fill="white"/>
</svg>
