<svg width="27" height="26" viewBox="0 0 27 26" fill="none" xmlns="http://www.w3.org/2000/svg">
<g clip-path="url(#clip0_47_77)">
<path d="M23 7.26376C22.2698 7.57194 21.4953 7.77423 20.7022 7.8639C21.5283 7.39221 22.1626 6.64527 22.4612 5.7553C21.6759 6.19925 20.8168 6.51205 19.9208 6.68017C19.191 5.93947 18.1514 5.47656 17.0006 5.47656C14.7912 5.47656 12.9999 7.18307 12.9999 9.28782C12.9999 9.58658 13.0353 9.87743 13.1034 10.1565C9.77854 9.99746 6.83069 8.48014 4.85746 6.17423C4.51316 6.73714 4.31588 7.39192 4.31588 8.09031C4.31588 9.41264 5.02222 10.5792 6.09563 11.2627C5.46032 11.2437 4.83899 11.0803 4.2835 10.7859C4.28328 10.8019 4.28328 10.8178 4.28328 10.8339C4.28328 12.6805 5.66229 14.221 7.4924 14.5711C6.90327 14.7238 6.28532 14.7461 5.68575 14.6364C6.19481 16.1506 7.67231 17.2525 9.4229 17.2833C8.05371 18.3055 6.32864 18.9149 4.45436 18.9149C4.13139 18.9149 3.81299 18.8968 3.5 18.8616C5.27046 19.943 7.37334 20.574 9.6326 20.574C16.9913 20.574 21.0153 14.7663 21.0153 9.72983C21.0153 9.56452 21.0115 9.40016 21.0037 9.23673C21.7869 8.69733 22.4629 8.02922 23 7.26376Z" fill="white"/>
</g>
<defs>
<clipPath id="clip0_47_77">
<rect width="19.5" height="15.1667" fill="white" transform="translate(3.5 5.4165)"/>
</clipPath>
</defs>
</svg>
