<svg width="34" height="43" viewBox="0 0 34 43" fill="none" xmlns="http://www.w3.org/2000/svg">
<path d="M33.1324 12.5833C33.147 12.0594 33.0545 11.538 32.8604 11.0511C32.6663 10.5642 32.3748 10.1221 32.0038 9.75188L24.3478 2.09589C23.6154 1.37647 22.631 0.971504 21.6044 0.967285H3.79979C2.18719 0.967285 0.867188 2.27189 0.867188 3.89989V39.0999C0.867188 40.7125 2.18719 42.0325 3.79979 42.0325H30.1998C31.8124 42.0325 33.1324 40.7125 33.1324 39.0999V12.5833ZM22.1324 6.11528L27.9844 11.9673H22.1324V6.11528ZM28.7324 37.6325H5.26719V5.36729H17.7324V12.4953C17.7324 14.6205 19.4638 16.3673 21.6044 16.3673H28.7324V37.6325Z" fill="#2F4590"/>
<path d="M12.6037 14.4601C12.9178 14.4697 13.2307 14.4161 13.5238 14.3025C13.8169 14.1889 14.0842 14.0177 14.3098 13.7988C14.5354 13.58 14.7148 13.3181 14.8373 13.0286C14.9598 12.7392 15.0229 12.4281 15.0229 12.1138C15.0229 11.7994 14.9598 11.4883 14.8373 11.1989C14.7148 10.9094 14.5354 10.6475 14.3098 10.4287C14.0842 10.2099 13.8169 10.0386 13.5238 9.92499C13.2307 9.81141 12.9178 9.75784 12.6037 9.76746C11.9938 9.78613 11.4152 10.0415 10.9905 10.4795C10.5657 10.9175 10.3281 11.5036 10.3281 12.1138C10.3281 12.7239 10.5657 13.31 10.9905 13.748C11.4152 14.186 11.9938 14.4414 12.6037 14.4601Z" fill="#2F4590"/>
<path fill-rule="evenodd" clip-rule="evenodd" d="M17.2934 19.5437C17.2934 17.0489 15.1946 15.2427 12.6008 15.2427C10.0092 15.2427 7.9082 17.0467 7.9082 19.5437V20.7163C7.9082 20.924 7.99072 21.1232 8.1376 21.2701C8.28448 21.417 8.48369 21.4995 8.6914 21.4995H16.5124C16.7197 21.4989 16.9184 21.4161 17.0648 21.2693C17.2112 21.1225 17.2934 20.9236 17.2934 20.7163V19.5437ZM8.5682 26.9995C8.5682 26.7077 8.6841 26.4279 8.89039 26.2217C9.09668 26.0154 9.37646 25.8995 9.6682 25.8995H24.3334C24.6251 25.8995 24.9049 26.0154 25.1112 26.2217C25.3175 26.4279 25.4334 26.7077 25.4334 26.9995C25.4334 27.2912 25.3175 27.571 25.1112 27.7773C24.9049 27.9836 24.6251 28.0995 24.3334 28.0995H9.6682C9.37646 28.0995 9.09668 27.9836 8.89039 27.7773C8.6841 27.571 8.5682 27.2912 8.5682 26.9995ZM8.5682 32.1321C8.5682 31.8403 8.6841 31.5605 8.89039 31.3543C9.09668 31.148 9.37646 31.0321 9.6682 31.0321H24.3334C24.6251 31.0321 24.9049 31.148 25.1112 31.3543C25.3175 31.5605 25.4334 31.8403 25.4334 32.1321C25.4334 32.4238 25.3175 32.7036 25.1112 32.9099C24.9049 33.1162 24.6251 33.2321 24.3334 33.2321H9.6682C9.37646 33.2321 9.09668 33.1162 8.89039 32.9099C8.6841 32.7036 8.5682 32.4238 8.5682 32.1321Z" fill="#2F4590"/>
</svg>
