<svg width="46" height="35" viewBox="0 0 46 35" fill="none" xmlns="http://www.w3.org/2000/svg">
<path d="M36.2937 5.71975C36.2735 5.92225 36.2615 6.15325 36.2562 6.40375L33.3807 7.777C32.978 7.711 30.9807 7.82725 28.0017 6.35725C27.2465 5.9845 26.5085 5.7865 25.7998 5.7865C25.1584 5.7874 24.5263 5.94033 23.9555 6.23275C23.2032 6.07 22.1195 5.653 21.4858 5.6545C20.0518 5.662 16.7915 6.82975 15.8885 6.9295C15.005 7.02625 14.0953 7.26925 13.1795 7.65625C11.5153 7.17175 9.42875 6.3805 8.31125 5.94325L0.5 0.25V18.5575L6.2405 21.289C6.32375 21.1915 6.419 21.0415 6.5225 20.8555L6.70025 20.938C6.78725 21.163 6.88325 21.3872 6.98825 21.61C6.35825 22.6705 6.28325 23.8653 6.7865 24.904C7.21775 25.7928 8.021 26.4168 8.91575 26.5915C8.9645 27.145 9.1505 27.6805 9.464 28.1448C10.0265 28.975 10.9205 29.4707 11.8573 29.4707C11.942 29.4707 12.0268 29.467 12.1108 29.4573C12.2443 29.818 12.44 30.154 12.6943 30.445C13.2598 31.0952 14.0518 31.468 14.8663 31.468C14.9263 31.468 14.9847 31.4665 15.044 31.462C15.1475 31.855 15.3238 32.227 15.5697 32.5585C16.136 33.3235 17.0098 33.7788 17.9083 33.7788C18.4662 33.7788 18.9995 33.6077 19.4697 33.2875C20.3787 33.871 21.1693 34.2812 21.8705 34.5332C22.2222 34.6765 22.5882 34.75 22.9618 34.75C23.8452 34.75 24.7025 34.3375 25.3145 33.616C25.5417 33.3475 25.7262 33.0475 25.8612 32.7265C26.1256 32.8065 26.4003 32.8474 26.6765 32.848C27.6155 32.848 28.5057 32.3882 29.1215 31.5842C29.414 31.2032 29.6258 30.7666 29.744 30.301C29.8085 30.3055 29.8723 30.3078 29.936 30.3078C31.0213 30.3078 32.06 29.671 32.6442 28.6458C32.9506 28.1125 33.1131 27.5087 33.116 26.8938C34.1885 26.734 35.1328 25.9713 35.5925 24.859C36.0455 23.7633 35.9225 22.5543 35.2903 21.5462L38.2115 19.9C38.2865 20.1565 38.36 20.3927 38.4313 20.5847L45.5 16.8235V1.4815L36.2937 5.71975ZM36.293 7.9975C36.3395 8.809 36.4242 9.72625 36.5337 10.684C35.9338 9.676 35.1763 9.21625 34.2357 8.9875L36.293 7.9975ZM32.372 25.8145C30.761 25.2602 27.4077 21.3182 27.4077 21.3182H27.4738C27.815 21.2943 28.5522 20.935 29.3795 21.1067C28.0805 19.9907 26.6517 20.935 25.679 20.3567C25.9047 21.0805 26.99 21.3085 27.2683 21.3175L30.4812 25.054C31.9362 26.7452 30.923 28.8378 29.4642 29.1707C28.4855 28.6945 25.7218 25.4072 25.7218 25.4072C25.8163 25.39 26.3765 25.2145 26.9473 25.2895C25.6295 24.304 24.1355 25.159 23.249 24.5403C23.7515 25.7815 25.4067 25.4635 25.58 25.4335L27.299 27.628C28.6745 29.383 27.5937 31.4102 26.1327 31.6847C24.8375 31.2295 23.9967 29.6095 23.9967 29.6095C24.1272 29.5885 24.5637 29.3943 25.1847 29.4842C24.08 28.516 22.7938 29.3943 22.0205 28.843C22.4983 29.884 23.6892 29.647 23.756 29.6395C24.947 31.5153 23.7118 33.4713 22.2358 33.5298H22.2342L22.2327 33.5305C21.3462 33.3768 20.4177 32.668 19.3693 31.9405C19.7292 31.5415 20.0472 30.8402 20.0472 30.8402C21.1003 28.9337 19.7337 27.2477 18.323 27.3925C19.4675 27.7052 20.3255 29.1662 19.4323 30.7885L19.04 31.4485C18.614 32.2248 17.9488 32.6935 17.4598 32.6357C16.7068 32.5443 15.6455 31.4448 16.0917 29.8938C16.2642 29.7363 17.9277 27.1915 17.9277 27.1915C19.0715 25.3495 17.7875 23.5863 16.373 23.6462C17.4995 24.0265 18.2892 25.537 17.318 27.1045L15.9657 29.2127C15.5045 29.9583 14.9075 30.3805 14.3383 30.3025C13.4548 30.1825 12.8352 29.1048 12.977 27.9925C12.9695 27.9993 13.9505 26.902 13.9505 26.902C15.254 25.1987 14.138 23.2968 12.7257 23.197C13.811 23.7025 14.4575 25.2955 13.3497 26.7453L12.8713 27.3318C12.3463 28.0203 11.714 28.3705 11.1605 28.2325C10.1945 27.9903 9.692 26.1827 10.1488 25.69C10.508 25.3022 11.5167 24.0745 11.5167 24.0745C12.8195 22.3705 11.705 20.4693 10.2913 20.368C11.3773 20.875 12.0237 22.468 10.916 23.9185L10.4375 24.5035C9.9095 25.198 9.275 25.5468 8.71775 25.405C7.55675 25.111 6.977 23.3185 8.08775 21.8635C8.08775 21.8635 7.7105 20.665 7.54025 20.1527L6.98075 19.8933C8.2925 16.837 10.274 10.0915 10.3655 7.8505C11.3315 8.19475 13.8815 8.92825 14.1522 8.92975L14.1508 8.93125C16.8958 8.06875 19.7728 8.164 21.0853 7.657C21.5105 7.495 22.3565 7.4845 23.2535 7.9975C22.6933 8.48875 22.1637 9.07375 21.614 9.619C20.3 10.9233 15.4145 12.9572 16.3565 15.0963C17.1695 16.942 19.4593 18.8305 23.3 15.8657L25.46 15.5687L28.8192 17.2262L33.1243 21.6475C34.6595 23.221 33.7902 25.357 32.372 25.8145ZM33.452 20.9432C32.9585 20.0208 31.4202 18.508 29.9683 17.2712L29.9592 17.2623C30.629 17.2893 31.3317 16.2107 32.24 16.1275C31.6055 15.643 30.554 16.2025 30.2262 16.291C28.4195 16.777 25.6115 14.5037 25.6115 14.5037L22.925 14.8907C22.925 14.8907 19.73 18.79 17.0382 15.5778C15.5765 13.8333 20.8738 11.5547 22.1788 10.258C23.8505 8.59675 25.34 6.56425 28.0902 7.94875C30.3747 9.10075 31.2747 9.0295 34.3392 9.56275C35.2528 9.7225 35.8857 10.141 36.5645 10.9578C36.884 13.6458 37.4007 16.627 37.8965 18.7015C37.6408 18.9167 35.4485 20.3913 33.452 20.9432Z" fill="#2F4590"/>
</svg>
